<svg width="209" height="73" viewBox="0 0 209 73" fill="none" xmlns="http://www.w3.org/2000/svg">
<path d="M47.427 30.0292C42.767 30.9134 40.4568 30.3528 40.2354 29.406C40.1625 29.0919 40.2887 28.6812 40.6122 28.1848C42.2518 25.6629 47.9677 22.1097 54.5119 19.5417C57.6668 18.3011 60.7686 17.3735 63.4818 16.8593C68.1376 15.976 70.4445 16.5363 70.6646 17.4827C70.7388 17.7976 70.6123 18.2078 70.2897 18.7048C68.6525 21.2235 62.9369 24.7783 56.3908 27.3497C53.2389 28.5879 50.1396 29.5145 47.4284 30.0287L47.427 30.0292Z" fill="white"/>
<path d="M48.4866 39.9975C42.4383 40.4446 38.4817 39.0018 38.7133 37.4258C38.763 37.0777 39.0232 36.6989 39.4845 36.301C41.0086 34.9865 44.833 33.4548 49.9427 32.9982C50.1102 32.9836 50.2764 32.9697 50.4411 32.9574C56.4783 32.5107 60.4292 33.9536 60.1996 35.5285C60.1487 35.8758 59.8879 36.2549 59.4247 36.6544C57.8987 37.9699 54.0743 39.5016 48.9726 39.9577C48.8092 39.9718 48.648 39.9852 48.4871 39.997L48.4866 39.9975Z" fill="white"/>
<path d="M44.5318 47.6969C44.5093 44.8455 42.0643 42.5515 39.0706 42.5727C37.1309 42.5866 35.4376 43.57 34.4912 45.0354L34.4904 45.0349L34.4755 45.0595C34.4417 45.1127 34.4089 45.1664 34.3773 45.2211L29.6958 52.93L10.1292 20.2803C8.6447 17.8035 5.33413 16.9425 2.73347 18.3555C0.192505 19.737 -0.72811 22.7797 0.616915 25.2285L0.615815 25.2295L0.643322 25.2748C0.666427 25.3162 0.688702 25.3579 0.712632 25.3987C0.736837 25.4396 0.763518 25.4786 0.788548 25.5179L28.8811 72.4019L28.8822 72.3956C29.031 72.6689 29.3281 72.8577 29.673 72.8577C29.9979 72.8577 30.2801 72.6909 30.4363 72.4433L30.4374 72.4467L43.8764 50.2044L43.8731 50.2028C44.2991 49.4586 44.5387 48.6041 44.5318 47.6969Z" fill="white"/>
<path d="M69.6803 0.677278C68.2968 -1.32435 60.4824 1.26118 52.2266 6.45006C43.9703 11.641 38.3998 17.4709 39.7834 19.472C41.1669 21.4739 48.9818 18.8889 57.2376 13.6979C65.4929 8.50826 71.0644 2.67916 69.6803 0.677278Z" fill="white"/>
<path d="M108.898 20.9902L101.884 39.4324H101.798L94.2404 20.9902H87.6453L99.6694 51.7645H103.261L115.498 20.9902H108.898Z" fill="white"/>
<path d="M118.544 38.6442C118.626 38.1404 118.765 37.6502 118.962 37.1708C119.155 36.6966 119.415 36.2812 119.733 35.921C120.056 35.5652 120.444 35.2711 120.903 35.0454C121.363 34.8191 121.884 34.7061 122.468 34.7061C123.024 34.7061 123.523 34.8191 123.97 35.0454C124.415 35.2711 124.807 35.5704 125.141 35.9406C125.473 36.3138 125.741 36.7284 125.932 37.1912C126.127 37.6563 126.269 38.1404 126.35 38.6442H118.544ZM129.504 33.9109C128.711 32.956 127.701 32.2004 126.479 31.6458C125.252 31.0894 123.803 30.8105 122.135 30.8105C120.464 30.8105 119.009 31.0807 117.772 31.6236C116.534 32.1708 115.504 32.9168 114.681 33.8708C113.86 34.8261 113.242 35.9458 112.823 37.233C112.405 38.5185 112.197 39.9027 112.197 41.3869C112.197 42.8712 112.433 44.238 112.907 45.4838C113.38 46.7301 114.055 47.8124 114.933 48.726C115.807 49.6369 116.88 50.3485 118.147 50.8501C119.415 51.3556 120.838 51.6087 122.427 51.6087C124.6 51.6087 126.509 51.0785 128.166 50.0223C129.822 48.9665 131.014 47.4522 131.737 45.4838L126.35 44.6495C125.96 45.4181 125.454 46.0528 124.827 46.5552C124.2 47.0607 123.399 47.3139 122.427 47.3139C121.676 47.3139 121.036 47.1525 120.503 46.8397C119.975 46.5226 119.559 46.1185 119.256 45.6122C118.948 45.1158 118.722 44.5568 118.587 43.94C118.445 43.3197 118.376 42.7098 118.376 42.1055H131.863V41.4282C131.863 39.9705 131.668 38.5907 131.277 37.2935C130.887 35.9915 130.298 34.8648 129.504 33.9109Z" fill="white"/>
<path d="M145.732 30.8105C144.645 30.8105 143.674 31.0424 142.81 31.5039C141.947 31.9694 141.223 32.6245 140.638 33.4759H140.557V31.4487H134.71V50.9689H140.557V42.1821C140.557 41.4413 140.597 40.684 140.68 39.9127C140.765 39.1471 140.959 38.4511 141.265 37.8294C141.572 37.2039 142.023 36.7028 142.621 36.3178C143.222 35.9345 144.021 35.7392 145.025 35.7392C145.915 35.7392 146.721 35.9806 147.448 36.4565L148.155 31.2864C147.765 31.1546 147.367 31.0424 146.966 30.9489C146.562 30.8562 146.152 30.8105 145.732 30.8105Z" fill="white"/>
<path d="M162.394 40.9323C161.99 40.4929 161.537 40.1267 161.033 39.8387C160.538 39.5464 160.021 39.2923 159.492 39.0792C158.962 38.8669 158.447 38.679 157.948 38.505C157.444 38.3323 156.993 38.1483 156.591 37.9503C156.187 37.7498 155.868 37.5314 155.631 37.2935C155.395 37.0529 155.273 36.7497 155.273 36.3773C155.273 35.9001 155.477 35.5025 155.883 35.1837C156.283 34.8661 156.722 34.7056 157.195 34.7056C157.779 34.7056 158.339 34.8396 158.865 35.1063C159.396 35.3707 159.868 35.6883 160.286 36.0598L162.789 32.8403C161.955 32.1482 160.919 31.6401 159.681 31.3069C158.44 30.9754 157.28 30.8105 156.193 30.8105C155.219 30.8105 154.336 30.9706 153.539 31.2864C152.751 31.6062 152.067 32.0425 151.496 32.6002C150.925 33.1574 150.479 33.8269 150.16 34.6086C149.839 35.3929 149.68 36.2312 149.68 37.1321C149.68 37.9273 149.799 38.5985 150.034 39.1405C150.272 39.6869 150.577 40.1549 150.952 40.5525C151.327 40.9519 151.765 41.2816 152.268 41.5483C152.772 41.8141 153.269 42.0511 153.772 42.263C154.273 42.4761 154.775 42.6636 155.273 42.8381C155.776 43.0112 156.216 43.2044 156.591 43.4167C156.965 43.6281 157.271 43.8738 157.509 44.1522C157.743 44.432 157.861 44.7821 157.861 45.2032C157.861 45.8396 157.634 46.3547 157.175 46.7371C156.716 47.1194 156.167 47.3139 155.525 47.3139C154.661 47.3139 153.861 47.0868 153.124 46.6348C152.39 46.1863 151.739 45.6552 151.181 45.0479L148.511 48.3444C149.399 49.3802 150.479 50.1841 151.747 50.7531C153.011 51.3234 154.342 51.6087 155.735 51.6087C156.819 51.6087 157.841 51.4508 158.805 51.1293C159.76 50.81 160.605 50.3555 161.329 49.7591C162.051 49.1635 162.63 48.4388 163.06 47.591C163.494 46.7414 163.709 45.7735 163.709 44.6886C163.709 43.8408 163.59 43.1117 163.352 42.4992C163.118 41.8915 162.797 41.369 162.394 40.9323Z" fill="white"/>
<path d="M169.093 22.4395C168.2 22.4395 167.45 22.7401 166.841 23.3317C166.233 23.9237 165.926 24.6332 165.926 25.458C165.926 26.3045 166.233 27.0171 166.841 27.5952C167.45 28.1777 168.2 28.4674 169.093 28.4674C169.98 28.4674 170.731 28.1777 171.339 27.5952C171.951 27.0171 172.257 26.3045 172.257 25.458C172.257 24.6332 171.951 23.9237 171.339 23.3317C170.731 22.7401 169.98 22.4395 169.093 22.4395Z" fill="white"/>
<path d="M172.014 31.4492H166.167V50.9694H172.014V31.4492Z" fill="white"/>
<path d="M202.482 31.4492L197.425 41.9607L192.336 31.4492H185.418H184.587H184.212V22.9521H178.364V31.4492H174.405V36.139H178.364V50.9693H184.212V36.139H188.688L194.422 47.9882L189.519 57.6672H195.949L209 31.4492H202.482Z" fill="white"/>
</svg>
